<?xml version="1.0" encoding="UTF-8"?>
<svg version="1.1" xmlns="http://www.w3.org/2000/svg" width="696" height="564">
<path d="M0 0 C4.1643855 0.19520557 7.01045194 0.36503809 10 3.59375 C11.05741902 6.76600707 11.13095784 9.01708196 11.14044189 12.34970093 C11.14900711 14.14988426 11.14900711 14.14988426 11.15774536 15.98643494 C11.15886322 17.30494949 11.15998108 18.62346405 11.16113281 19.98193359 C11.1657616 21.38311392 11.17078635 22.78429298 11.17617798 24.18547058 C11.18929721 27.99335797 11.19574588 31.80122774 11.20018864 35.6091342 C11.20311984 37.98799724 11.20722471 40.36685547 11.21169281 42.74571609 C11.22536583 50.18824948 11.23503372 57.63077186 11.2388947 65.07331693 C11.2433766 73.66554309 11.26093133 82.25761026 11.2898953 90.84978807 C11.31150609 97.49106402 11.32159864 104.13229521 11.32293582 110.77360594 C11.32398419 114.74039231 11.32989874 118.70702918 11.34775543 122.67377853 C11.36422603 126.40516035 11.36639668 130.13628012 11.35761642 133.86768532 C11.35647815 135.88847888 11.3702029 137.90926371 11.3843689 139.93000793 C11.37879974 141.13576981 11.37323059 142.34153168 11.36749268 143.58383179 C11.36895924 144.62985754 11.3704258 145.67588329 11.3719368 146.7536068 C10.94089755 150.04506168 9.95102917 151.93046508 8 154.59375 C4.86599115 156.16075442 1.36844905 156.44539561 -2 155.59375 C-5.56450606 151.93486218 -6.50070901 149.59125677 -6.50793457 144.5213623 C-6.51921387 143.30166245 -6.53049316 142.08196259 -6.54211426 140.82530212 C-6.53433781 139.48183965 -6.52614518 138.13837954 -6.51757812 136.79492188 C-6.52300093 135.3737364 -6.53012448 133.95255656 -6.53881836 132.53138733 C-6.55703619 128.67802429 -6.5499908 124.82509017 -6.53730202 120.97171974 C-6.52716626 116.93682332 -6.53656929 112.90196331 -6.54284668 108.86706543 C-6.55012143 102.09148575 -6.54053999 95.31608053 -6.52148438 88.54052734 C-6.49971585 80.70998703 -6.50676735 72.87986332 -6.52879 65.0493331 C-6.546949 58.32305892 -6.54949991 51.59691007 -6.53903532 44.8706193 C-6.5328031 40.85467101 -6.53195718 36.83891846 -6.54518127 32.82298279 C-6.55674656 29.04713401 -6.54870232 25.2718217 -6.52560425 21.49603081 C-6.52032068 20.11133655 -6.521825 18.72659704 -6.53065491 17.34192085 C-6.54160597 15.45000967 -6.52542975 13.55799968 -6.50793457 11.6661377 C-6.50642647 10.60796089 -6.50491837 9.54978409 -6.50336456 8.45954132 C-5.81310416 4.52970115 -3.99958088 1.18737557 0 0 Z " fill="#3C5FB0" transform="translate(204,215.40625)"/>
<path d="M0 0 C3.03519579 2.04244811 4.74015834 3.67756762 5.46107864 7.34660339 C5.65354564 10.37878953 5.67526467 13.37384231 5.64697266 16.41210938 C5.66011505 18.14216972 5.66011505 18.14216972 5.67352295 19.90718079 C5.69552973 23.71975317 5.68095799 27.53116581 5.6640625 31.34375 C5.66743024 33.99264977 5.6722748 36.64151432 5.67855835 39.29040527 C5.68764773 44.84200607 5.67568615 50.39327399 5.65185547 55.94482422 C5.62464496 62.35767274 5.63345967 68.76972641 5.6609875 75.18255568 C5.68369831 80.69443537 5.6868692 86.20607616 5.67379415 91.71798754 C5.66601018 95.0074336 5.66689944 98.2964254 5.68147659 101.58586121 C5.69416339 105.25375238 5.67483491 108.92011353 5.64697266 112.58789062 C5.65709381 113.67479691 5.66721497 114.76170319 5.67764282 115.88154602 C5.57438018 123.2124195 5.57438018 123.2124195 2.68222046 127.17810059 C-0.84218469 129.57205432 -2.82193332 129.68368364 -7 129 C-9.36497439 127.13291495 -10.66030715 125.67938569 -12 123 C-12.09873572 121.45289515 -12.13504498 119.90160703 -12.14044189 118.35136414 C-12.14615204 117.37138458 -12.15186218 116.39140503 -12.15774536 115.38172913 C-12.15886322 114.30273849 -12.15998108 113.22374786 -12.16113281 112.11206055 C-12.16609772 110.9786322 -12.17106262 109.84520386 -12.17617798 108.6774292 C-12.19082775 104.91385296 -12.19760638 101.15031887 -12.203125 97.38671875 C-12.20887423 94.77838642 -12.21463199 92.1700541 -12.22039795 89.5617218 C-12.22997273 84.78695454 -12.23586737 80.01219642 -12.2388947 75.23742074 C-12.24337391 68.21125312 -12.26091434 61.18528018 -12.2898953 54.15917176 C-12.3141258 48.07337102 -12.3218395 41.98765059 -12.32357025 35.90180397 C-12.32660137 33.31300611 -12.33464527 30.72420917 -12.34775543 28.13544273 C-12.3647785 24.51551887 -12.36294449 20.89607051 -12.35644531 17.27612305 C-12.3656601 16.20320511 -12.37487488 15.13028717 -12.3843689 14.02485657 C-12.33274859 4.86304513 -12.33274859 4.86304513 -9 1 C-5.86128812 -0.56935594 -3.46144178 -0.35201103 0 0 Z " fill="#4270C1" transform="translate(231,229)"/>
<path d="M0 0 C0.72859726 -0.00175232 1.45719452 -0.00350464 2.20787048 -0.00531006 C4.62232833 -0.00972037 7.03671325 -0.00679346 9.45117188 -0.00341797 C11.12504083 -0.00409124 12.7989097 -0.00506147 14.47277832 -0.00631714 C17.98332651 -0.007793 21.49384929 -0.00564313 25.00439453 -0.00097656 C29.51059238 0.00472066 34.01673067 0.00144106 38.52292633 -0.00454903 C41.98008678 -0.00815764 45.43723305 -0.00701466 48.89439392 -0.00442123 C50.55622871 -0.0037528 52.21806477 -0.00457749 53.87989807 -0.00690079 C56.19991481 -0.00943222 58.51983428 -0.00557976 60.83984375 0 C61.5308165 -0.00202423 62.22178925 -0.00404846 62.93370056 -0.00613403 C67.69139262 0.0151299 67.69139262 0.0151299 69.91992188 1.12939453 C69.91992188 13.66939453 69.91992188 26.20939453 69.91992188 39.12939453 C43.84992187 39.12939453 17.77992188 39.12939453 -9.08007812 39.12939453 C-9.08007812 26.58939453 -9.08007812 14.04939453 -9.08007812 1.12939453 C-6.15192793 -0.33468057 -3.20901054 -0.00940092 0 0 Z M1.91992188 10.12939453 C1.91992188 16.72939453 1.91992188 23.32939453 1.91992188 30.12939453 C20.72992188 30.12939453 39.53992188 30.12939453 58.91992188 30.12939453 C58.91992188 23.52939453 58.91992188 16.92939453 58.91992188 10.12939453 C40.10992187 10.12939453 21.29992187 10.12939453 1.91992188 10.12939453 Z " fill="#192143" transform="translate(470.080078125,290.87060546875)"/>
<path d="M0 0 C7.67211202 -0.02526605 15.3442134 -0.04283123 23.01635742 -0.05493164 C25.62866619 -0.05997377 28.24097211 -0.06680725 30.85327148 -0.07543945 C34.59880268 -0.08751036 38.34429672 -0.09322935 42.08984375 -0.09765625 C43.26586655 -0.10281754 44.44188934 -0.10797882 45.65354919 -0.11329651 C46.73459427 -0.11337204 47.81563934 -0.11344757 48.92944336 -0.11352539 C49.88652695 -0.115746 50.84361053 -0.11796661 51.82969666 -0.12025452 C54 0 54 0 55 1 C55.125 4.5 55.125 4.5 55 8 C54 9 54 9 52.24729919 9.12025452 C51.48562943 9.11803391 50.72395966 9.11581329 49.93920898 9.11352539 C49.06631226 9.11340454 48.19341553 9.11328369 47.29406738 9.11315918 C45.90907043 9.10548523 45.90907043 9.10548523 44.49609375 9.09765625 C43.6517981 9.09664917 42.80750244 9.09564209 41.93762207 9.09460449 C38.77090098 9.0893557 35.60419919 9.07539456 32.4375 9.0625 C25.363125 9.041875 18.28875 9.02125 11 9 C11 28.8 11 48.6 11 69 C30.34000706 68.29557277 30.34000706 68.29557277 49.296875 66.41015625 C54.54383995 65.82900507 59.72957333 65.81721064 65 66 C65.09765625 72.15234375 65.09765625 72.15234375 65 74 C63.35186506 75.64813494 61.30019298 75.44159133 59.03125 75.71875 C57.99387695 75.84596436 56.95650391 75.97317871 55.88769531 76.10424805 C54.21078613 76.30014526 54.21078613 76.30014526 52.5 76.5 C51.35885742 76.6338208 50.21771484 76.7676416 49.04199219 76.90551758 C36.17471282 78.37380946 23.44972352 79.06935154 10.5 79.125 C9.1082959 79.13213013 9.1082959 79.13213013 7.68847656 79.1394043 C6.40408691 79.13614136 6.40408691 79.13614136 5.09375 79.1328125 C4.32740234 79.13168457 3.56105469 79.13055664 2.77148438 79.12939453 C1 79 1 79 0 78 C-0.09498646 75.56603981 -0.12558417 73.16057048 -0.11352539 70.72631836 C-0.11367142 69.96539383 -0.11381744 69.2044693 -0.1139679 68.42048645 C-0.11326862 65.89357702 -0.10547555 63.36674038 -0.09765625 60.83984375 C-0.09579212 59.0924941 -0.0943682 57.34514393 -0.09336853 55.59779358 C-0.08954293 50.98968066 -0.07971229 46.38159905 -0.06866455 41.77349854 C-0.05845134 37.07491479 -0.0538711 32.37632601 -0.04882812 27.67773438 C-0.03809005 18.45180913 -0.02101313 9.22590716 0 0 Z " fill="#192142" transform="translate(337,227)"/>
<path d="M0 0 C10.28304538 -0.02312376 20.56608462 -0.04091525 30.84915066 -0.05181217 C35.6234828 -0.05704093 40.39779721 -0.06413844 45.17211914 -0.07543945 C49.77566262 -0.0862686 54.37918899 -0.09227689 58.98274422 -0.09487724 C60.74309623 -0.09673144 62.50344726 -0.10035196 64.26379204 -0.10573006 C66.72072277 -0.11294086 69.17758195 -0.11399093 71.63452148 -0.11352539 C72.73719109 -0.1189183 72.73719109 -0.1189183 73.86213684 -0.12442017 C78.88594784 -0.11405216 78.88594784 -0.11405216 80 1 C80.125 4.5 80.125 4.5 80 8 C79 9 79 9 76.29820251 9.12025452 C75.09241043 9.11803391 73.88661835 9.11581329 72.64428711 9.11352539 C71.98089828 9.11367142 71.31750946 9.11381744 70.63401794 9.1139679 C68.43176044 9.11326881 66.22958655 9.10547665 64.02734375 9.09765625 C62.50419664 9.09579206 60.98104893 9.09436816 59.457901 9.09336853 C55.44162349 9.08954346 51.42538192 9.07971328 47.40911865 9.06866455 C43.31376634 9.05845019 39.21840824 9.05387086 35.12304688 9.04882812 C27.08201288 9.03809099 19.04101505 9.02049429 11 9 C11 15.27 11 21.54 11 28 C13.05468506 27.99476318 15.10937012 27.98952637 17.22631836 27.98413086 C23.99970199 27.96759328 30.7730865 27.9565281 37.54648495 27.94818783 C41.65494285 27.94295954 45.76338014 27.93586287 49.87182617 27.92456055 C53.83346828 27.91372975 57.79509052 27.90772276 61.75674629 27.90512276 C63.27148311 27.90326886 64.78621879 27.8996489 66.30094719 27.89426994 C68.41541813 27.88705693 70.52980594 27.88600917 72.64428711 27.88647461 C73.85007919 27.884254 75.05587128 27.88203339 76.29820251 27.87974548 C79 28 79 28 80 29 C80.1328125 30.8125 80.1328125 30.8125 80.125 33 C80.12886719 34.0828125 80.12886719 34.0828125 80.1328125 35.1875 C80 37 80 37 79 38 C76.57142965 38.10029857 74.17128387 38.13618425 71.7421875 38.12939453 C70.98286926 38.13114685 70.22355103 38.13289917 69.44122314 38.13470459 C66.91912584 38.1391233 64.39709807 38.13618506 61.875 38.1328125 C60.13004544 38.13348553 58.38509096 38.13445555 56.64013672 38.13571167 C52.97818105 38.13718867 49.31624972 38.13503403 45.65429688 38.13037109 C40.94955508 38.1246738 36.24487032 38.1279528 31.54013062 38.13394356 C27.93546109 38.13754912 24.33080518 38.13641061 20.72613525 38.13381577 C18.99090569 38.13314648 17.25567491 38.13397496 15.52044678 38.13629532 C13.09953513 38.13882177 10.67871714 38.13498138 8.2578125 38.12939453 C7.53362122 38.13141876 6.80942993 38.13344299 6.06329346 38.13552856 C1.11426266 38.11426266 1.11426266 38.11426266 0 37 C-0.08858646 34.26105915 -0.11523479 31.5474673 -0.09765625 28.80859375 C-0.0962413 27.98875504 -0.09482635 27.16891632 -0.09336853 26.32423401 C-0.08775289 23.69528618 -0.07519779 21.06642227 -0.0625 18.4375 C-0.05748701 16.65950643 -0.05292376 14.88151154 -0.04882812 13.10351562 C-0.03777839 8.73564455 -0.02050331 4.36783652 0 0 Z " fill="#192142" transform="translate(461,219)"/>
<path d="M0 0 C0.66 -0.0103125 1.32 -0.020625 2 -0.03125 C5.07502552 0.78555365 6.08883685 1.93567774 8 4.5 C8.60664525 7.6540733 8.54623913 10.77484675 8.51757812 13.97851562 C8.5245874 14.93827805 8.53159668 15.89804047 8.53881836 16.8868866 C8.55642759 20.0603018 8.54476489 23.23282568 8.53125 26.40625 C8.53394406 28.61055676 8.53782577 30.81486235 8.54284668 33.01916504 C8.54874571 37.63935661 8.54016547 42.2592389 8.52148438 46.87939453 C8.49869491 52.80475736 8.51181578 58.72939551 8.53577423 64.65473175 C8.55022107 69.20661897 8.54563127 73.75833407 8.53526306 78.31022644 C8.53259271 80.49513332 8.53587633 82.68005576 8.54518127 84.86494446 C8.55532824 87.91754611 8.53987105 90.96897052 8.51757812 94.02148438 C8.52567505 94.92654221 8.53377197 95.83160004 8.54211426 96.76408386 C8.45922139 102.88383511 8.45922139 102.88383511 6.09265137 106.0592041 C3.82998259 107.61705743 2.72015217 108.04250238 0 108 C-0.66 108.0103125 -1.32 108.020625 -2 108.03125 C-5.07502552 107.21444635 -6.08883685 106.06432226 -8 103.5 C-8.60664525 100.3459267 -8.54623913 97.22515325 -8.51757812 94.02148438 C-8.5245874 93.06172195 -8.53159668 92.10195953 -8.53881836 91.1131134 C-8.55642759 87.9396982 -8.54476489 84.76717432 -8.53125 81.59375 C-8.53394406 79.38944324 -8.53782577 77.18513765 -8.54284668 74.98083496 C-8.54874571 70.36064339 -8.54016547 65.7407611 -8.52148438 61.12060547 C-8.49869491 55.19524264 -8.51181578 49.27060449 -8.53577423 43.34526825 C-8.55022107 38.79338103 -8.54563127 34.24166593 -8.53526306 29.68977356 C-8.53259271 27.50486668 -8.53587633 25.31994424 -8.54518127 23.13505554 C-8.55532824 20.08245389 -8.53987105 17.03102948 -8.51757812 13.97851562 C-8.52567505 13.07345779 -8.53377197 12.16839996 -8.54211426 11.23591614 C-8.45922139 5.11616489 -8.45922139 5.11616489 -6.09265137 1.9407959 C-3.82998259 0.38294257 -2.72015217 -0.04250238 0 0 Z " fill="#334F9F" transform="translate(185,239.5)"/>
<path d="M0 0 C1.57073532 1.57073532 1.16369307 3.15362218 1.20532227 5.33618164 C1.22526749 6.2570607 1.24521271 7.17793976 1.26576233 8.12672424 C1.28247482 9.12775681 1.29918732 10.12878937 1.31640625 11.16015625 C1.33718735 12.17975937 1.35796844 13.19936249 1.37937927 14.24986267 C1.44498852 17.52067048 1.50381234 20.79156137 1.5625 24.0625 C1.60567442 26.27409728 1.64928834 28.48568603 1.69335938 30.69726562 C1.8006814 36.13142151 1.90242623 41.56566082 2 47 C3.80597656 46.98259766 3.80597656 46.98259766 5.6484375 46.96484375 C7.22395679 46.95546566 8.79947775 46.94636548 10.375 46.9375 C11.1690625 46.92912109 11.963125 46.92074219 12.78125 46.91210938 C18.7734375 46.88671875 18.7734375 46.88671875 21 48 C21.02688151 49.64574566 21.04634123 51.29161413 21.0625 52.9375 C21.07410156 53.85402344 21.08570313 54.77054687 21.09765625 55.71484375 C21 58 21 58 20 59 C13.73 59 7.46 59 1 59 C1 78.14 1 97.28 1 117 C-2.63 117 -6.26 117 -10 117 C-10 78.72 -10 40.44 -10 1 C-6.74696956 -0.62651522 -3.60774398 -0.11453156 0 0 Z " fill="#192143" transform="translate(419,215)"/>
<path d="M0 0 C3.65907504 0.68607657 5.35167676 1.98984314 8 4.5625 C9.49475767 7.55201534 9.13560412 10.27629215 9.14526367 13.61083984 C9.14862228 14.33622452 9.1519809 15.06160919 9.15544128 15.80897522 C9.16496232 18.21381327 9.16689504 20.61858176 9.16796875 23.0234375 C9.17118079 24.69251535 9.17454483 26.36159292 9.17805481 28.03067017 C9.18404915 31.53282321 9.18589442 35.03495156 9.18530273 38.53710938 C9.18520115 43.02521877 9.19884766 47.51316981 9.21607494 52.00124168 C9.22719328 55.44990771 9.22922198 58.89853545 9.22869301 62.34721756 C9.2298736 64.00182261 9.23429978 65.65642864 9.24202538 67.31101608 C9.25182089 69.62591382 9.24894894 71.94046784 9.24291992 74.25537109 C9.24434494 75.57282318 9.24576996 76.89027527 9.24723816 78.24765015 C9.01662121 81.3396509 8.71260736 83.02467234 7 85.5625 C3.78044012 87.86218563 0.87440468 88.11598638 -3 87.5625 C-6.44082918 84.89514143 -7.84680023 83.40480788 -8.63491821 79.07165527 C-8.66442015 77.71670516 -8.66673057 76.3609866 -8.64697266 75.00585938 C-8.65573425 74.26213577 -8.66449585 73.51841217 -8.67352295 72.75215149 C-8.69546256 70.30291757 -8.68098541 67.85550105 -8.6640625 65.40625 C-8.66743224 63.69901179 -8.67228619 61.99177592 -8.67855835 60.2845459 C-8.68592224 56.71013501 -8.67524028 53.13634976 -8.65185547 49.56201172 C-8.62336733 44.9850866 -8.63977398 40.4096274 -8.66971779 35.83275604 C-8.68780421 32.30846147 -8.68202671 28.78451325 -8.66907883 25.26020813 C-8.6657485 23.57294032 -8.6698188 21.88564085 -8.68147659 20.19841003 C-8.69420838 17.83780909 -8.67478016 15.47956631 -8.64697266 13.11914062 C-8.65709381 12.42496536 -8.66721497 11.7307901 -8.67764282 11.01557922 C-8.59474995 7.20851695 -8.05830902 5.63528626 -5.64706421 2.62536621 C-3 0.5625 -3 0.5625 0 0 Z " fill="#599EF0" transform="translate(291,249.4375)"/>
<path d="M0 0 C3.44978228 2.66137262 4.84642367 4.15562174 5.63491821 8.49084473 C5.66442015 9.84579484 5.66673057 11.2015134 5.64697266 12.55664062 C5.66011505 13.67222603 5.66011505 13.67222603 5.67352295 14.81034851 C5.69546256 17.25958243 5.68098541 19.70699895 5.6640625 22.15625 C5.66743224 23.86348821 5.67228619 25.57072408 5.67855835 27.2779541 C5.68592224 30.85236499 5.67524028 34.42615024 5.65185547 38.00048828 C5.62336733 42.5774134 5.63977398 47.1528726 5.66971779 51.72974396 C5.68780421 55.25403853 5.68202671 58.77798675 5.66907883 62.30229187 C5.6657485 63.98955968 5.6698188 65.67685915 5.68147659 67.36408997 C5.69420838 69.72469091 5.67478016 72.08293369 5.64697266 74.44335938 C5.65709381 75.13753464 5.66721497 75.8317099 5.67764282 76.54692078 C5.59476677 80.3532108 5.0597571 81.92550533 2.64706421 84.93322754 C0 87 0 87 -3 87.625 C-6.96333283 86.79930566 -8.44534526 85.06558569 -11 82 C-12.46776944 79.06446113 -12.15168161 76.44462298 -12.17700195 73.16699219 C-12.18357315 72.46432724 -12.19014435 71.76166229 -12.19691467 71.03770447 C-12.21665808 68.70742692 -12.22831368 66.37721391 -12.23828125 64.046875 C-12.24235678 63.250821 -12.2464323 62.454767 -12.25063133 61.63459015 C-12.27149841 57.41964476 -12.28579627 53.20473198 -12.29516602 48.98974609 C-12.30622049 44.64067207 -12.340607 40.2921111 -12.38033772 35.94321823 C-12.40651534 32.59569361 -12.41485894 29.24829088 -12.41844749 25.90067291 C-12.42331201 24.29793083 -12.43492225 22.69519414 -12.45348549 21.09255219 C-12.47789835 18.8448202 -12.47690858 16.59841059 -12.4699707 14.35058594 C-12.47583694 13.07310486 -12.48170319 11.79562378 -12.48774719 10.47943115 C-11.91216528 6.37341547 -10.5808133 4.20576403 -8 1 C-5.11138291 -0.44430855 -3.20352299 -0.37688506 0 0 Z " fill="#487DCF" transform="translate(252,250)"/>
<path d="M0 0 C1.23750708 0.00138269 1.23750708 0.00138269 2.50001431 0.00279331 C3.44377422 0.00141865 4.38753414 0.00004398 5.35989285 -0.00137234 C6.40358028 0.00222294 7.44726772 0.00581821 8.52258205 0.00952244 C9.61512798 0.00937641 10.70767391 0.00923038 11.83332729 0.00907993 C15.46405899 0.00977961 19.09474012 0.01757454 22.72546291 0.02539158 C25.2351011 0.02725557 27.74473964 0.02867956 30.25437832 0.0296793 C36.1971526 0.03311435 42.1399105 0.0410051 48.08267635 0.05102879 C55.50982591 0.0632853 62.93697771 0.06866991 70.36413479 0.0742197 C83.6187014 0.08495972 96.87325287 0.101847 110.12780666 0.12304783 C111.49404341 2.85552131 111.25623266 5.10503685 111.12780666 8.12304783 C109.54732137 9.70353312 107.95610094 9.24902734 105.76232815 9.25003147 C104.34885601 9.25426121 104.34885601 9.25426121 102.90682888 9.25857639 C101.34365429 9.25554005 101.34365429 9.25554005 99.74890041 9.25244236 C98.11249096 9.25507084 98.11249096 9.25507084 96.44302273 9.25775242 C92.81710145 9.26217346 89.19122848 9.25923205 85.56530666 9.25586033 C83.05806373 9.2565333 80.55082086 9.25750326 78.04357815 9.2587595 C72.78095915 9.26023681 67.51835285 9.25817543 62.25573635 9.25341892 C56.16352465 9.24797634 50.07134641 9.24973901 43.97913551 9.25524533 C38.12879648 9.26032226 32.27847022 9.25979487 26.42813015 9.25686359 C23.93372499 9.25619407 21.43931899 9.25702362 18.94491482 9.25934315 C15.4654908 9.26186819 11.98613204 9.25803117 8.50671291 9.25244236 C7.46459652 9.25446659 6.42248013 9.25649082 5.34878445 9.25857639 C4.40646969 9.25575657 3.46415493 9.25293674 2.49328518 9.25003147 C1.66957928 9.24965445 0.84587337 9.24927742 -0.00279331 9.24888897 C-1.87219334 9.12304783 -1.87219334 9.12304783 -2.87219334 8.12304783 C-2.99719334 4.62304783 -2.99719334 4.62304783 -2.87219334 1.12304783 C-1.87219334 0.12304783 -1.87219334 0.12304783 0 0 Z " fill="#1A2042" transform="translate(445.8721933364868,268.8769521713257)"/>
<path d="M0 0 C4.14413289 6.21619934 3.14175575 14.67256235 3.01953125 21.92578125 C3.00540695 22.83579391 2.99128265 23.74580658 2.97673035 24.68339539 C2.9438574 26.59018 2.90754421 28.49690819 2.86791992 30.40356445 C2.81232268 33.32180755 2.78401957 36.23958286 2.75585938 39.15820312 C2.72043359 41.01826199 2.68338171 42.87829076 2.64453125 44.73828125 C2.64016556 45.60810135 2.63579987 46.47792145 2.63130188 47.37409973 C2.4613271 53.38543301 2.4613271 53.38543301 0.1081543 56.52026367 C-2.43513467 58.30542573 -3.8804917 58.92572599 -7 59 C-12.63855422 56.72289157 -12.63855422 56.72289157 -14 54 C-14.11038256 52.38762502 -14.159117 50.77083513 -14.17700195 49.15478516 C-14.18983719 48.14678864 -14.20267242 47.13879211 -14.21589661 46.10025024 C-14.22328354 45.00755829 -14.23067047 43.91486633 -14.23828125 42.7890625 C-14.246353 41.6693808 -14.25442474 40.5496991 -14.26274109 39.39608765 C-14.27658834 37.02383985 -14.28730761 34.65157207 -14.29516602 32.27929688 C-14.31239681 28.64675325 -14.35628057 25.01511528 -14.40039062 21.3828125 C-14.41051565 19.08073587 -14.41903235 16.7786515 -14.42578125 14.4765625 C-14.44328934 13.38791901 -14.46079742 12.29927551 -14.47883606 11.17764282 C-14.47591049 10.16334198 -14.47298492 9.14904114 -14.4699707 8.10400391 C-14.47583694 7.21290924 -14.48170319 6.32181458 -14.48774719 5.40371704 C-13.83814316 2.20233668 -12.50844007 1.02650955 -10 -1 C-6.00471255 -2.33176248 -3.90144863 -1.41870859 0 0 Z " fill="#518EDF" transform="translate(276,265)"/>
<path d="M0 0 C3.07944896 2.29482702 3.91529428 3.47404922 4.53344727 7.31225586 C4.54432373 8.60010986 4.5552002 9.88796387 4.56640625 11.21484375 C4.57570412 12.25397667 4.57570412 12.25397667 4.58518982 13.31410217 C4.59227657 14.77571206 4.58913373 16.23740287 4.57641602 17.69897461 C4.56256035 19.9277918 4.59661125 22.15239748 4.63476562 24.38085938 C4.63571705 25.80468852 4.63385671 27.22852289 4.62890625 28.65234375 C4.62963135 29.94132568 4.63035645 31.23030762 4.63110352 32.55834961 C3.84268731 36.85788667 2.39885503 38.33562604 -1 41 C-4.9363755 41.73807041 -6.43925798 41.36136708 -9.8125 39.1875 C-14.64709424 34.35290576 -13.22328818 27.08832008 -13.25 20.6875 C-13.270625 19.46353516 -13.29125 18.23957031 -13.3125 16.97851562 C-13.31765625 15.79322266 -13.3228125 14.60792969 -13.328125 13.38671875 C-13.3374707 12.30608154 -13.34681641 11.22544434 -13.35644531 10.11206055 C-12.94329943 6.50495738 -11.84119649 4.11033515 -10 1 C-6.68343166 -1.63038179 -3.94300516 -1.15004317 0 0 Z " fill="#2B408E" transform="translate(168,272)"/>
<path d="M0 0 C2.36497439 1.86708505 3.66030715 3.32061431 5 6 C5.32626833 10.5979055 5.32458885 15.20446225 5.375 19.8125 C5.41238281 21.09705078 5.44976562 22.38160156 5.48828125 23.70507812 C5.49988281 24.94322266 5.51148438 26.18136719 5.5234375 27.45703125 C5.54325684 28.59116455 5.56307617 29.72529785 5.58349609 30.89379883 C4.81525665 34.98346846 3.22260096 36.45274717 0 39 C-3.5625 39.5625 -3.5625 39.5625 -7 39 C-9.36497439 37.13291495 -10.66030715 35.67938569 -12 33 C-12.24485876 28.5464513 -12.18520601 24.08451748 -12.1875 19.625 C-12.19974609 18.37976563 -12.21199219 17.13453125 -12.22460938 15.8515625 C-12.22654297 14.6553125 -12.22847656 13.4590625 -12.23046875 12.2265625 C-12.23457764 11.12908691 -12.23868652 10.03161133 -12.24291992 8.90087891 C-11.99969056 5.99630477 -11.61997834 4.39709594 -10 2 C-6.2794164 -0.48038907 -4.40203429 -0.46337203 0 0 Z " fill="#5DAAFB" transform="translate(316,274)"/>
<path d="M0 0 C4.1643855 0.19520557 7.01045194 0.36503809 10 3.59375 C11.05741902 6.76600707 11.13095784 9.01708196 11.14044189 12.34970093 C11.14900711 14.14988426 11.14900711 14.14988426 11.15774536 15.98643494 C11.15886322 17.30494949 11.15998108 18.62346405 11.16113281 19.98193359 C11.1657616 21.38311392 11.17078635 22.78429298 11.17617798 24.18547058 C11.18929721 27.99335797 11.19574588 31.80122774 11.20018864 35.6091342 C11.20311984 37.98799724 11.20722471 40.36685547 11.21169281 42.74571609 C11.22536583 50.18824948 11.23503372 57.63077186 11.2388947 65.07331693 C11.2433766 73.66554309 11.26093133 82.25761026 11.2898953 90.84978807 C11.31150609 97.49106402 11.32159864 104.13229521 11.32293582 110.77360594 C11.32398419 114.74039231 11.32989874 118.70702918 11.34775543 122.67377853 C11.36422603 126.40516035 11.36639668 130.13628012 11.35761642 133.86768532 C11.35647815 135.88847888 11.3702029 137.90926371 11.3843689 139.93000793 C11.37879974 141.13576981 11.37323059 142.34153168 11.36749268 143.58383179 C11.36895924 144.62985754 11.3704258 145.67588329 11.3719368 146.7536068 C10.94089755 150.04506168 9.95102917 151.93046508 8 154.59375 C4.86599115 156.16075442 1.36844905 156.44539561 -2 155.59375 C-5.56450606 151.93486218 -6.50070901 149.59125677 -6.50793457 144.5213623 C-6.51921387 143.30166245 -6.53049316 142.08196259 -6.54211426 140.82530212 C-6.53433781 139.48183965 -6.52614518 138.13837954 -6.51757812 136.79492188 C-6.52300093 135.3737364 -6.53012448 133.95255656 -6.53881836 132.53138733 C-6.55703619 128.67802429 -6.5499908 124.82509017 -6.53730202 120.97171974 C-6.52716626 116.93682332 -6.53656929 112.90196331 -6.54284668 108.86706543 C-6.55012143 102.09148575 -6.54053999 95.31608053 -6.52148438 88.54052734 C-6.49971585 80.70998703 -6.50676735 72.87986332 -6.52879 65.0493331 C-6.546949 58.32305892 -6.54949991 51.59691007 -6.53903532 44.8706193 C-6.5328031 40.85467101 -6.53195718 36.83891846 -6.54518127 32.82298279 C-6.55674656 29.04713401 -6.54870232 25.2718217 -6.52560425 21.49603081 C-6.52032068 20.11133655 -6.521825 18.72659704 -6.53065491 17.34192085 C-6.54160597 15.45000967 -6.52542975 13.55799968 -6.50793457 11.6661377 C-6.50642647 10.60796089 -6.50491837 9.54978409 -6.50336456 8.45954132 C-5.81310416 4.52970115 -3.99958088 1.18737557 0 0 Z M-5 5.59375 C-5.59911575 8.381029 -5.59911575 8.381029 -5.50793457 11.50791931 C-5.51921387 12.71783035 -5.53049316 13.92774139 -5.54211426 15.17431641 C-5.53433729 16.51196529 -5.52614463 17.8496118 -5.51757812 19.18725586 C-5.52299934 20.5984418 -5.530122 22.00962207 -5.53881836 23.42079163 C-5.55705682 27.25148792 -5.54998186 31.08175338 -5.53730202 34.91245723 C-5.52717495 38.92200173 -5.53656706 42.93150935 -5.54284668 46.9410553 C-5.5501248 53.67553326 -5.54053202 60.40983578 -5.52148438 67.14428711 C-5.49972403 74.92766038 -5.50676004 82.71061441 -5.52879 90.49397749 C-5.54694993 97.17776924 -5.54949919 103.86143487 -5.53903532 110.54524332 C-5.53280247 114.53661472 -5.53195871 118.52778917 -5.54518127 122.51914787 C-5.5567476 126.2728236 -5.54870042 130.02595974 -5.52560425 133.77957726 C-5.52032086 135.15620783 -5.52182471 136.53288391 -5.53065491 137.90949631 C-5.54160689 139.79051325 -5.52542896 141.67162957 -5.50793457 143.55259705 C-5.50642647 144.60469832 -5.50491837 145.6567996 -5.50336456 146.74078274 C-4.87209793 150.31867273 -3.51601669 152.01989983 -1 154.59375 C1.067875 155.09375336 1.067875 155.09375336 3.125 154.59375 C3.80820313 154.490625 4.49140625 154.3875 5.1953125 154.28125 C7.38301726 153.6476334 7.38301726 153.6476334 9 150.59375 C9.31110013 147.85732113 9.31110013 147.85732113 9.27415466 144.71044922 C9.28412979 143.48219421 9.29410492 142.25393921 9.30438232 140.98846436 C9.30527813 139.6251222 9.3059417 138.26177987 9.30639648 136.8984375 C9.31401683 135.46445279 9.32244411 134.03047218 9.33161926 132.59649658 C9.35357956 128.69989499 9.36236483 124.80337188 9.36744571 120.90671539 C9.37108651 118.4735877 9.37732502 116.04048067 9.3844471 113.60736084 C9.40894384 105.12299697 9.42199464 96.6386943 9.42553711 88.15429688 C9.42917586 80.23852672 9.45909463 72.32314349 9.50094169 64.40749168 C9.53559101 57.61591951 9.55108459 50.82447594 9.55178314 44.03281593 C9.5525776 39.97433186 9.5613931 35.91624207 9.58978081 31.85784912 C9.61587132 28.04260875 9.61821815 24.22809216 9.60212517 20.41280365 C9.60030359 19.01112038 9.60706519 17.60939633 9.62294388 16.20780182 C9.64326827 14.29765764 9.62991533 12.38724274 9.61473083 10.47705078 C9.61674216 9.40705841 9.61875349 8.33706604 9.62082577 7.23464966 C9.24289318 4.38256585 9.24289318 4.38256585 6.62173557 2.75338745 C1.28570797 0.39317328 -1.35911156 1.05612445 -5 5.59375 Z " fill="#38518A" transform="translate(204,215.40625)"/>
<path d="M0 0 C2.69499207 1.80522156 2.69499207 1.80522156 5 5 C5.72483991 8.83001742 5.63145834 12.60412344 5.56762695 16.49145508 C5.56835709 17.65286011 5.56908722 18.81426514 5.56983948 20.01086426 C5.56635763 23.84756256 5.52746471 27.68304516 5.48828125 31.51953125 C5.47895524 34.18041541 5.47159222 36.84123233 5.46684265 39.50212097 C5.45131644 45.7884979 5.41030521 52.07443886 5.3600952 58.36062402 C5.30416312 65.51894592 5.27670564 72.67728891 5.25161803 79.83577502 C5.19938782 94.55740608 5.11146974 109.27869544 5 124 C4.01 124.495 4.01 124.495 3 125 C3.00276538 124.38854944 3.00553076 123.77709888 3.00837994 123.14711952 C3.07457219 108.28364671 3.12424758 93.42018808 3.15543652 78.55660439 C3.17091935 71.36873717 3.19203572 64.18096822 3.22631836 56.99316406 C3.2561776 50.72980828 3.2755647 44.46652363 3.28226548 38.20309865 C3.28618372 34.88522246 3.29698231 31.56759782 3.31719017 28.24977493 C3.33883644 24.55001801 3.34197226 20.85068853 3.34057617 17.15087891 C3.351362 16.04533157 3.36214783 14.93978424 3.3732605 13.80073547 C3.36913651 12.79670181 3.36501251 11.79266815 3.36076355 10.75820923 C3.36352893 9.88250589 3.36629431 9.00680256 3.36914349 8.10456276 C3.24732614 7.41005705 3.12550879 6.71555134 3 6 C-0.18762365 3.87491756 -2.26512223 3.4979837 -6 3 C-6.309375 3.804375 -6.61875 4.60875 -6.9375 5.4375 C-8 8 -8 8 -9 9 C-9.10787538 10.50508199 -9.14682432 12.01516316 -9.15821838 13.52406311 C-9.1680072 14.50147964 -9.17779602 15.47889618 -9.18788147 16.4859314 C-9.19363693 17.56702179 -9.1993924 18.64811218 -9.20532227 19.76196289 C-9.21522186 20.8935231 -9.22512146 22.02508331 -9.23532104 23.19093323 C-9.26704594 26.95148589 -9.29173675 30.71205121 -9.31640625 34.47265625 C-9.3369663 37.07197915 -9.3579625 39.67129864 -9.37937927 42.27061462 C-9.42903619 48.42585414 -9.47427596 54.58111178 -9.51740164 60.73640007 C-9.56673197 67.74236709 -9.62166564 74.74828661 -9.67708123 81.75420773 C-9.79097692 96.16942723 -9.89779936 110.58469308 -10 125 C-12.48621783 122.51378217 -12.25246098 121.77917427 -12.26069641 118.35136414 C-12.26778122 117.37138458 -12.27486603 116.39140503 -12.28216553 115.38172913 C-12.27968811 114.30273849 -12.27721069 113.22374786 -12.2746582 112.11206055 C-12.27976913 110.9786322 -12.28488007 109.84520386 -12.29014587 108.6774292 C-12.30409669 104.91380599 -12.3030807 101.15036482 -12.30078125 97.38671875 C-12.30466569 94.77838573 -12.30899984 92.17005335 -12.31376648 89.5617218 C-12.32198768 84.08646013 -12.32106659 78.61125003 -12.31567383 73.13598633 C-12.30963908 66.81029457 -12.3219298 60.48482552 -12.3432439 54.15917176 C-12.36299505 48.07335755 -12.36603209 41.98764733 -12.36250877 35.90180397 C-12.36302284 33.31301158 -12.36827659 30.72421569 -12.37832069 28.13544273 C-12.39063895 24.51549459 -12.38392011 20.89606276 -12.37231445 17.27612305 C-12.37995819 16.20320511 -12.38760193 15.13028717 -12.39547729 14.02485657 C-12.33045998 4.86278279 -12.33045998 4.86278279 -9 1 C-5.86128812 -0.56935594 -3.46144178 -0.35201103 0 0 Z " fill="#426299" transform="translate(231,229)"/>
<path d="M0 0 C5.28 0 10.56 0 16 0 C16 2.64 16 5.28 16 8 C11.71 8 7.42 8 3 8 C3 8.99 3 9.98 3 11 C7.29 11 11.58 11 16 11 C16 11.66 16 12.32 16 13 C13.69 13 11.38 13 9 13 C9 14.32 9 15.64 9 17 C12.3 17 15.6 17 19 17 C19 17.66 19 18.32 19 19 C4.48 19 -10.04 19 -25 19 C-25 18.01 -25 17.02 -25 16 C-21.54168516 15.97050768 -18.08340346 15.9530384 -14.625 15.9375 C-13.65949219 15.92912109 -12.69398438 15.92074219 -11.69921875 15.91210938 C-5.40175711 15.89097695 0.74839863 16.23892802 7 17 C7 15.68 7 14.36 7 13 C4.69 13 2.38 13 0 13 C0 10.69 0 8.38 0 6 C4.29 6 8.58 6 13 6 C13 5.01 13 4.02 13 3 C8.71 3 4.42 3 0 3 C0 2.01 0 1.02 0 0 Z " fill="#1C213C" transform="translate(385,350)"/>
<path d="M0 0 C1.09771477 -0.00021904 1.09771477 -0.00021904 2.21760559 -0.0004425 C4.64168235 0.00025536 7.06568272 0.00804185 9.48974609 0.01586914 C11.16840574 0.01773377 12.84706593 0.01915746 14.52572632 0.02015686 C18.94805397 0.02397851 23.37034888 0.0338058 27.79266357 0.04486084 C32.30366574 0.05508253 36.81467319 0.05965611 41.32568359 0.06469727 C50.17986466 0.07542837 59.03402141 0.09250058 67.88818359 0.11352539 C67.88818359 0.44352539 67.88818359 0.77352539 67.88818359 1.11352539 C43.79818359 1.44352539 19.70818359 1.77352539 -5.11181641 2.11352539 C-7.03533917 8.84585505 -7.44606935 13.88199683 -7.42431641 20.73852539 C-7.44042969 21.76204102 -7.45654297 22.78555664 -7.47314453 23.84008789 C-7.47378906 24.83008789 -7.47443359 25.82008789 -7.47509766 26.84008789 C-7.47807861 27.7329248 -7.48105957 28.62576172 -7.48413086 29.5456543 C-6.98324148 33.00031301 -6.57328926 34.56408256 -4.11181641 37.11352539 C-0.60113368 37.89441144 2.87801938 37.83447758 6.46240234 37.82055664 C7.50137161 37.83567795 8.54034088 37.85079926 9.61079407 37.86637878 C12.93264216 37.90940253 16.25358414 37.9181082 19.57568359 37.92602539 C21.82635897 37.94915819 24.07701262 37.97452096 26.32763672 38.00219727 C31.84782745 38.06519424 37.367662 38.10001214 42.88818359 38.11352539 C42.88818359 38.44352539 42.88818359 38.77352539 42.88818359 39.11352539 C25.72818359 39.11352539 8.56818359 39.11352539 -9.11181641 39.11352539 C-9.11181641 26.57352539 -9.11181641 14.03352539 -9.11181641 1.11352539 C-6.1747364 -0.35501461 -3.21837936 -0.0166701 0 0 Z " fill="#121523" transform="translate(470.11181640625,290.886474609375)"/>
<path d="M0 0 C0.33 0 0.66 0 1 0 C1.33 24.42 1.66 48.84 2 74 C2.66 74 3.32 74 4 74 C4 74.66 4 75.32 4 76 C6.97 75.01 6.97 75.01 10 74 C10.33 74.99 10.66 75.98 11 77 C11.66 77.66 12.32 78.32 13 79 C12 80 12 80 9.25 80.375 C4.97408256 79.88162491 3.70193739 78.24232486 1 75 C-0.48203779 72.03592441 -0.11920826 69.37920835 -0.11352539 66.07177734 C-0.11367142 65.35947464 -0.11381744 64.64717194 -0.1139679 63.9132843 C-0.11327011 61.55413794 -0.10548397 59.19507011 -0.09765625 56.8359375 C-0.0957916 55.20211836 -0.09436792 53.56829866 -0.09336853 51.93447876 C-0.08954709 47.6305182 -0.07971998 43.32659129 -0.06866455 39.02264404 C-0.05844242 34.63228816 -0.05386919 30.24192685 -0.04882812 25.8515625 C-0.03809739 17.23435954 -0.02102543 8.61718396 0 0 Z " fill="#496EAB" transform="translate(240,257)"/>
<path d="M0 0 C22.19329011 -0.19089108 22.19329011 -0.19089108 30.59375 0.77734375 C35.05312453 1.18998068 39.52627056 1.07787924 44 1 C44 1.66 44 2.32 44 3 C29.48 3 14.96 3 0 3 C0 2.01 0 1.02 0 0 Z " fill="#222940" transform="translate(360,366)"/>
<path d="M0 0 C2 1.25 2 1.25 3 3 C3.5 5.5 3.5 5.5 3 8 C0.62930256 10.37069744 -1.1511074 10.97867774 -4.48828125 11.0625 C-7.10132366 10.8809862 -9.47507845 10.70608426 -12 10 C-14 7 -14 7 -13.9375 4.5 C-13 2 -13 2 -10.9375 0.125 C-6.75509106 -1.47677364 -4.373733 -0.98761713 0 0 Z M-9 2 C-9.66 3.32 -10.32 4.64 -11 6 C-9.05765911 8.38785276 -9.05765911 8.38785276 -5.5 8.1875 C-2.15035297 8.24131237 -2.15035297 8.24131237 0 7 C0 5.68 0 4.36 0 3 C-2.95664519 1.5216774 -5.74229737 1.93967217 -9 2 Z " fill="#1B1F31" transform="translate(376,351)"/>
<path d="M0 0 C0 0.33 0 0.66 0 1 C-1.6396875 1.4021875 -1.6396875 1.4021875 -3.3125 1.8125 C-7.33923299 3.08288569 -7.33923299 3.08288569 -10 6 C-10.43247866 8.11353771 -10.43247866 8.11353771 -10.34057617 10.47143555 C-10.34034958 11.37214279 -10.34012299 12.27285004 -10.33988953 13.20085144 C-10.32440567 14.16968765 -10.30892181 15.13852386 -10.29296875 16.13671875 C-10.28872391 17.13129593 -10.28447906 18.12587311 -10.28010559 19.15058899 C-10.26330153 22.32983375 -10.22564576 25.50844656 -10.1875 28.6875 C-10.17245541 30.84178773 -10.15876662 32.99608538 -10.14648438 35.15039062 C-10.11339244 40.43380967 -10.06317592 45.71685969 -10 51 C-8.68 51.66 -7.36 52.32 -6 53 C-6.66 54.32 -7.32 55.64 -8 57 C-8.99 57 -9.98 57 -11 57 C-12.22753468 54.54493065 -12.14661778 52.90023989 -12.17700195 50.15478516 C-12.18983719 49.14678864 -12.20267242 48.13879211 -12.21589661 47.10025024 C-12.22328354 46.00755829 -12.23067047 44.91486633 -12.23828125 43.7890625 C-12.246353 42.6693808 -12.25442474 41.5496991 -12.26274109 40.39608765 C-12.27658834 38.02383985 -12.28730761 35.65157207 -12.29516602 33.27929688 C-12.31239681 29.64675325 -12.35628057 26.01511528 -12.40039062 22.3828125 C-12.41051565 20.08073587 -12.41903235 17.7786515 -12.42578125 15.4765625 C-12.44328934 14.38791901 -12.46079742 13.29927551 -12.47883606 12.17764282 C-12.47591049 11.16334198 -12.47298492 10.14904114 -12.4699707 9.10400391 C-12.47583694 8.21290924 -12.48170319 7.32181458 -12.48774719 6.40371704 C-11.83814316 3.20233668 -10.50844007 2.02650955 -8 0 C-4.71023192 -1.09658936 -3.28696233 -0.79953138 0 0 Z " fill="#4D7EC3" transform="translate(274,264)"/>
<path d="M0 0 C0.66 0.33 1.32 0.66 2 1 C2 1.66 2 2.32 2 3 C1.34 3 0.68 3 0 3 C-0.02469081 7.3782512 -0.04285557 11.75646567 -0.05493164 16.13476562 C-0.05996514 17.62468166 -0.06679242 19.11459274 -0.07543945 20.60449219 C-0.08754805 22.74415304 -0.09323807 24.88374868 -0.09765625 27.0234375 C-0.10289307 28.31169434 -0.10812988 29.59995117 -0.11352539 30.92724609 C-0.21542631 33.91405228 -0.21542631 33.91405228 1 36 C3.11846285 36.68729254 3.11846285 36.68729254 5.5625 37.125 C6.38878906 37.29257812 7.21507812 37.46015625 8.06640625 37.6328125 C9.02353516 37.81457031 9.02353516 37.81457031 10 38 C9.67 38.66 9.34 39.32 9 40 C5.2064932 40.35288435 3.44058747 40.28393415 0.1875 38.1875 C-4.64709424 33.35290576 -3.22328818 26.08832008 -3.25 19.6875 C-3.270625 18.46353516 -3.29125 17.23957031 -3.3125 15.97851562 C-3.31765625 14.79322266 -3.3228125 13.60792969 -3.328125 12.38671875 C-3.3374707 11.30608154 -3.34681641 10.22544434 -3.35644531 9.11206055 C-2.94721932 5.53918132 -1.76721977 3.10663237 0 0 Z " fill="#2E3B70" transform="translate(158,273)"/>
<path d="M0 0 C-0.375 1.9375 -0.375 1.9375 -1 4 C-1.99 4.495 -1.99 4.495 -3 5 C-3 30.41 -3 55.82 -3 82 C-3.66 81.67 -4.32 81.34 -5 81 C-5.06949441 71.02957465 -5.12280843 61.05920688 -5.15543652 51.08858871 C-5.17109597 46.4588745 -5.19233932 41.82932592 -5.22631836 37.19970703 C-5.25890188 32.73229595 -5.27685091 28.26504424 -5.28463173 23.7975235 C-5.29017705 22.0926589 -5.30100568 20.38780308 -5.31719017 18.68300629 C-5.33895135 16.29596572 -5.34196752 13.90958466 -5.34057617 11.52246094 C-5.351362 10.81683517 -5.36214783 10.11120941 -5.3732605 9.38420105 C-5.35371478 6.28745797 -5.14115686 4.24971901 -3.60371399 1.52984619 C-2 0 -2 0 0 0 Z " fill="#4D8EDA" transform="translate(288,251)"/>
<path d="M0 0 C5.28 0 10.56 0 16 0 C16 0.99 16 1.98 16 3 C11.71 3 7.42 3 3 3 C3 3.99 3 4.98 3 6 C7.29 6 11.58 6 16 6 C16 6.66 16 7.32 16 8 C10.72 8 5.44 8 0 8 C0 5.36 0 2.72 0 0 Z " fill="#1D243D" transform="translate(412,363)"/>
<path d="M0 0 C5.28 0 10.56 0 16 0 C16 0.99 16 1.98 16 3 C11.71 3 7.42 3 3 3 C3 3.99 3 4.98 3 6 C7.29 6 11.58 6 16 6 C16 6.66 16 7.32 16 8 C10.72 8 5.44 8 0 8 C0 5.36 0 2.72 0 0 Z " fill="#1D253E" transform="translate(412,349)"/>
<path d="M0 0 C3.63 0 7.26 0 11 0 C11 0.66 11 1.32 11 2 C8.36 2 5.72 2 3 2 C3 5.63 3 9.26 3 13 C6.3 12.67 9.6 12.34 13 12 C13 12.99 13 13.98 13 15 C8.71 15 4.42 15 0 15 C0 10.05 0 5.1 0 0 Z " fill="#1B223A" transform="translate(433,351)"/>
<path d="M0 0 C3.83952695 3.83952695 2.41433101 10.6355178 2.4375 15.8125 C2.47037109 17.09705078 2.50324219 18.38160156 2.53710938 19.70507812 C2.54419922 20.94322266 2.55128906 22.18136719 2.55859375 23.45703125 C2.57204834 24.59116455 2.58550293 25.72529785 2.59936523 26.89379883 C1.81067387 30.98117979 0.24192337 32.46893998 -3 35 C-6.8125 35.3125 -6.8125 35.3125 -10 35 C-10.33 34.34 -10.66 33.68 -11 33 C-6.05 32.505 -6.05 32.505 -1 32 C-0.67 21.44 -0.34 10.88 0 0 Z " fill="#6099D1" transform="translate(319,278)"/>
<path d="M0 0 C0.99 0 1.98 0 3 0 C3 2.97 3 5.94 3 9 C4.32 9 5.64 9 7 9 C7 9.66 7 10.32 7 11 C5.68 11 4.36 11 3 11 C3 14.63 3 18.26 3 22 C2.01 22 1.02 22 0 22 C0 14.74 0 7.48 0 0 Z " fill="#1E2437" transform="translate(447,349)"/>
<path d="M0 0 C0.99 0.66 1.98 1.32 3 2 C3 2.66 3 3.32 3 4 C2.401875 3.814375 1.80375 3.62875 1.1875 3.4375 C-1.16408762 2.77906313 -1.16408762 2.77906313 -4 4 C-4.33 3.34 -4.66 2.68 -5 2 C-5.66 2 -6.32 2 -7 2 C-7.66 3.65 -8.32 5.3 -9 7 C-9.66 7 -10.32 7 -11 7 C-10.88986124 11.06304554 -10.75929135 15.12518667 -10.625 19.1875 C-10.5940625 20.33798828 -10.563125 21.48847656 -10.53125 22.67382812 C-10.49257813 23.78564453 -10.45390625 24.89746094 -10.4140625 26.04296875 C-10.3826416 27.06414795 -10.3512207 28.08532715 -10.31884766 29.13745117 C-9.99123205 32.07871688 -9.22687806 34.32024003 -8 37 C-8.66 37 -9.32 37 -10 37 C-12.09596212 33.55737701 -12.25731787 30.83829109 -12.265625 26.84375 C-12.26820313 25.65652344 -12.27078125 24.46929687 -12.2734375 23.24609375 C-12.26570313 22.00988281 -12.25796875 20.77367187 -12.25 19.5 C-12.25773437 18.26378906 -12.26546875 17.02757812 -12.2734375 15.75390625 C-12.27085937 14.56667969 -12.26828125 13.37945312 -12.265625 12.15625 C-12.26336914 11.07150391 -12.26111328 9.98675781 -12.25878906 8.86914062 C-11.99915386 5.990619 -11.60226965 4.3813549 -10 2 C-6.31282562 -0.45811625 -4.35654296 -0.31118164 0 0 Z " fill="#629AD8" transform="translate(316,274)"/>
<path d="M0 0 C2.16650391 1.59545898 2.16650391 1.59545898 4 4 C4.48583984 7.34399414 4.48583984 7.34399414 4.4609375 11.28515625 C4.46002106 11.98265488 4.45910461 12.6801535 4.4581604 13.39878845 C4.45213415 14.86887443 4.43641712 16.33894869 4.41162109 17.80883789 C4.37506393 20.05856545 4.37060222 22.30664674 4.37109375 24.55664062 C4.29549474 35.55675788 4.29549474 35.55675788 2 39 C1.34 38.67 0.68 38.34 0 38 C0.32597168 37.31139893 0.65194336 36.62279785 0.98779297 35.91333008 C2.1535274 32.55811809 2.22770724 29.93394305 2.1953125 26.38671875 C2.18886719 25.13955078 2.18242187 23.89238281 2.17578125 22.60742188 C2.15902344 21.31384766 2.14226562 20.02027344 2.125 18.6875 C2.11597656 17.37458984 2.10695312 16.06167969 2.09765625 14.70898438 C2.07411797 11.47247087 2.0412352 8.23632851 2 5 C1.401875 4.855625 0.80375 4.71125 0.1875 4.5625 C-1.56150404 4.1127561 -3.28677023 3.57107659 -5 3 C-5 2.34 -5 1.68 -5 1 C-5.99 0.67 -6.98 0.34 -8 0 C-5.02898609 -1.48550695 -3.16565278 -0.82306972 0 0 Z " fill="#283876" transform="translate(168,272)"/>
<path d="M0 0 C0.66 0 1.32 0 2 0 C2 1.65 2 3.3 2 5 C6.62 5 11.24 5 16 5 C16 5.99 16 6.98 16 8 C13.35409986 8.02684679 10.70846904 8.04676357 8.0625 8.0625 C6.93038086 8.07506836 6.93038086 8.07506836 5.77539062 8.08789062 C3.85005687 8.09652441 1.92464419 8.05224333 0 8 C-1 7 -1 7 -1.125 4 C-1 1 -1 1 0 0 Z " fill="#1D2439" transform="translate(341,363)"/>
<path d="M0 0 C7.26 0 14.52 0 22 0 C22 0.66 22 1.32 22 2 C19.03 2 16.06 2 13 2 C13 3.98 13 5.96 13 8 C12.01 8 11.02 8 10 8 C10 6.02 10 4.04 10 2 C6.7 2 3.4 2 0 2 C0 1.34 0 0.68 0 0 Z " fill="#1C2435" transform="translate(337,359)"/>
<path d="M0 0 C0.66 0 1.32 0 2 0 C2 1.65 2 3.3 2 5 C6.62 5 11.24 5 16 5 C16 5.99 16 6.98 16 8 C10.72 8 5.44 8 0 8 C0 5.36 0 2.72 0 0 Z " fill="#1B2236" transform="translate(341,349)"/>
<path d="M0 0 C0.33 0 0.66 0 1 0 C1.47863248 6.22222222 1.47863248 6.22222222 -0.5 9.4375 C-4.01694681 11.63559176 -6.95866467 11.81157964 -11 11 C-13.5 9.375 -13.5 9.375 -15 7 C-15.25 3.75 -15.25 3.75 -15 1 C-14.67 1 -14.34 1 -14 1 C-13.9175 1.763125 -13.835 2.52625 -13.75 3.3125 C-13.21795304 6.06847124 -13.21795304 6.06847124 -11.25 7.75 C-8.81308412 9.10384216 -6.74905699 9.61818653 -4 10 C-3.896875 9.46375 -3.79375 8.9275 -3.6875 8.375 C-2.81907303 5.37497956 -1.44379704 2.7620465 0 0 Z " fill="#314179" transform="translate(192,336)"/>
<path d="M0 0 C9.24 0 18.48 0 28 0 C28 0.33 28 0.66 28 1 C22.22628995 1.88826308 16.69326107 2.02794181 10.85546875 1.96875 C7.46867884 2.00581473 4.32708762 2.39507498 1 3 C0.67 2.01 0.34 1.02 0 0 Z " fill="#1D2338" transform="translate(468,219)"/>
<path d="M0 0 C7.26 0 14.52 0 22 0 C22 0.66 22 1.32 22 2 C14.74 2 7.48 2 0 2 C0 1.34 0 0.68 0 0 Z " fill="#1E253C" transform="translate(409,359)"/>
<path d="M0 0 C0.33 1.32 0.66 2.64 1 4 C-1.31 3.67 -3.62 3.34 -6 3 C-6.28875 3.804375 -6.5775 4.60875 -6.875 5.4375 C-8 8 -8 8 -10 9 C-9.4140625 2.84765625 -9.4140625 2.84765625 -9 1 C-6.04335481 -0.4783226 -3.25770263 -0.06032783 0 0 Z " fill="#4561B0" transform="translate(231,229)"/>
<path d="M0 0 C0.99 0 1.98 0 3 0 C3.04241723 2.33294775 3.04092937 4.66702567 3 7 C2.67 7.33 2.34 7.66 2 8 C1.68281714 13.03761016 1.69322963 18.09961113 3 23 C2.34 23.33 1.68 23.66 1 24 C-0.29235715 19.08497242 -0.11135517 14.22709898 -0.0625 9.1875 C-0.05798828 8.30384766 -0.05347656 7.42019531 -0.04882812 6.50976562 C-0.03709866 4.33981441 -0.01916495 2.16989828 0 0 Z " fill="#314A93" transform="translate(177,318)"/>
<path d="M0 0 C0.33 0 0.66 0 1 0 C1.13277344 0.77085937 1.26554688 1.54171875 1.40234375 2.3359375 C1.57894531 3.33882813 1.75554687 4.34171875 1.9375 5.375 C2.11152344 6.37273437 2.28554687 7.37046875 2.46484375 8.3984375 C2.87712062 10.96909656 2.87712062 10.96909656 4 13 C6.11846285 13.68729254 6.11846285 13.68729254 8.5625 14.125 C9.80193359 14.37636719 9.80193359 14.37636719 11.06640625 14.6328125 C11.70449219 14.75398438 12.34257812 14.87515625 13 15 C12.67 15.66 12.34 16.32 12 17 C8.2064932 17.35288435 6.44058747 17.28393415 3.1875 15.1875 C0.6483337 12.6483337 0.04278204 11.08666381 -0.09765625 7.51953125 C-0.08605469 6.62621094 -0.07445312 5.73289062 -0.0625 4.8125 C-0.05347656 3.91144531 -0.04445312 3.01039063 -0.03515625 2.08203125 C-0.02355469 1.39496094 -0.01195312 0.70789063 0 0 Z " fill="#273265" transform="translate(155,296)"/>
<path d="M0 0 C0.66 0 1.32 0 2 0 C2 0.99 2 1.98 2 3 C2.99 2.67 3.98 2.34 5 2 C4.75 3.875 4.75 3.875 4 6 C0.84876885 8.33424529 -2.17387952 8.41588266 -6 8 C-6.66 7.01 -7.32 6.02 -8 5 C-5.36 5 -2.72 5 0 5 C0 3.35 0 1.7 0 0 Z " fill="#5692D4" transform="translate(294,329)"/>
<path d="M0 0 C2.875 0.4375 2.875 0.4375 5.875 2.4375 C5.545 3.0975 5.215 3.7575 4.875 4.4375 C4.2975 4.251875 3.72 4.06625 3.125 3.875 C0.64355951 3.39249768 -0.73488556 3.72046567 -3.125 4.4375 C-3.785 4.4375 -4.445 4.4375 -5.125 4.4375 C-5.455 5.0975 -5.785 5.7575 -6.125 6.4375 C-6.785 6.1075 -7.445 5.7775 -8.125 5.4375 C-3.97630533 0.55668275 -3.97630533 0.55668275 0 0 Z " fill="#426CB1" transform="translate(249.125,249.5625)"/>
<path d="M0 0 C1.32 1.65 2.64 3.3 4 5 C3 6 3 6 0.0625 6.125 C-3 6 -3 6 -5 5 C-5 4.01 -5 3.02 -5 2 C-3.35 1.34 -1.7 0.68 0 0 Z " fill="#4976B6" transform="translate(249,331)"/>
<path d="M0 0 C1.32 0 2.64 0 4 0 C5.35439668 2.70879335 5.06501451 5.00933268 5 8 C3.35 8.33 1.7 8.66 0 9 C-0.33 8.34 -0.66 7.68 -1 7 C-0.34 7 0.32 7 1 7 C1.33 5.02 1.66 3.04 2 1 C1.34 0.67 0.68 0.34 0 0 Z " fill="#161B36" transform="translate(552,269)"/>
<path d="M0 0 C2.97 1.98 2.97 1.98 6 4 C6 3.34 6 2.68 6 2 C7.32 1.67 8.64 1.34 10 1 C10.33 2.32 10.66 3.64 11 5 C7.37 5 3.74 5 0 5 C0 3.35 0 1.7 0 0 Z " fill="#181D36" transform="translate(409,327)"/>
<path d="M0 0 C0.66 1.32 1.32 2.64 2 4 C-3.29230769 7.07692308 -3.29230769 7.07692308 -6.875 6.6875 C-7.57625 6.460625 -8.2775 6.23375 -9 6 C-8.360625 5.896875 -7.72125 5.79375 -7.0625 5.6875 C-6.381875 5.460625 -5.70125 5.23375 -5 5 C-4.67 4.01 -4.34 3.02 -4 2 C-3.34 2.33 -2.68 2.66 -2 3 C-1.34 2.01 -0.68 1.02 0 0 Z " fill="#5186CB" transform="translate(275,317)"/>
<path d="M0 0 C-0.375 1.9375 -0.375 1.9375 -1 4 C-1.99 4.495 -1.99 4.495 -3 5 C-3.31241455 7.71446979 -3.51336592 10.33909361 -3.625 13.0625 C-3.66367187 13.82111328 -3.70234375 14.57972656 -3.7421875 15.36132812 C-3.83673562 17.24047195 -3.91946756 19.12020336 -4 21 C-4.33 21 -4.66 21 -5 21 C-5.08107646 18.24940619 -5.14052813 15.50120979 -5.1875 12.75 C-5.21263672 11.97269531 -5.23777344 11.19539063 -5.26367188 10.39453125 C-5.30906596 6.85379229 -5.33187823 4.6095341 -3.61328125 1.453125 C-2 0 -2 0 0 0 Z " fill="#5385D0" transform="translate(288,251)"/>
<path d="M0 0 C0.99 0.33 1.98 0.66 3 1 C2.84152588 1.57524414 2.68305176 2.15048828 2.51977539 2.74316406 C2.02086674 4.90939777 1.80111676 6.89322683 1.68359375 9.109375 C1.64169922 9.86347656 1.59980469 10.61757812 1.55664062 11.39453125 C1.51732422 12.17183594 1.47800781 12.94914063 1.4375 13.75 C1.39431641 14.54277344 1.35113281 15.33554688 1.30664062 16.15234375 C1.20097009 18.10137815 1.10002034 20.05066748 1 22 C0.67 22 0.34 22 0 22 C0 14.74 0 7.48 0 0 Z " fill="#1C2135" transform="translate(461,219)"/>
<path d="M0 0 C0.33 0.99 0.66 1.98 1 3 C4.3 2.67 7.6 2.34 11 2 C11 2.99 11 3.98 11 5 C7.37 5 3.74 5 0 5 C0 3.35 0 1.7 0 0 Z " fill="#242940" transform="translate(435,361)"/>
<path d="M0 0 C0.66 0.66 1.32 1.32 2 2 C0.4375 4 0.4375 4 -2 6 C-5.75 6.25 -5.75 6.25 -9 6 C-9.33 5.34 -9.66 4.68 -10 4 C-6.7 3.67 -3.4 3.34 0 3 C0 2.01 0 1.02 0 0 Z " fill="#6499D1" transform="translate(318,307)"/>
<path d="M0 0 C3.93774177 -0.36630156 5.56539771 -0.30233203 8.875 2 C9.926875 2.99 9.926875 2.99 11 4 C10.67 4.66 10.34 5.32 10 6 C9.01 5.34 8.02 4.68 7 4 C4.37468476 3.83286431 4.37468476 3.83286431 2 4 C2.33 3.34 2.66 2.68 3 2 C2.01 1.34 1.02 0.68 0 0 Z " fill="#578BCC" transform="translate(288,250)"/>
<path d="M0 0 C0.33 0 0.66 0 1 0 C1.125 3.375 1.125 3.375 1 7 C0.34 7.66 -0.32 8.32 -1 9 C-1.99 9 -2.98 9 -4 9 C-3.71125 8.443125 -3.4225 7.88625 -3.125 7.3125 C-1.9586747 4.91505355 -0.9660119 2.48403061 0 0 Z " fill="#354983" transform="translate(192,336)"/>
<path d="M0 0 C0 0.33 0 0.66 0 1 C-1.093125 1.268125 -2.18625 1.53625 -3.3125 1.8125 C-6.61692663 2.87663739 -7.94960422 3.34654664 -10 6 C-10 4.35 -10 2.7 -10 1 C-6.78548731 -0.60725635 -3.56387464 -0.05748185 0 0 Z " fill="#10121F" transform="translate(419,215)"/>
<path d="M0 0 C1.98 0 3.96 0 6 0 C6.33 0.99 6.66 1.98 7 3 C5.02 3 3.04 3 1 3 C0.67 2.01 0.34 1.02 0 0 Z " fill="#1E223B" transform="translate(367,359)"/>
<path d="M0 0 C2.475 0.99 2.475 0.99 5 2 C4.34 3.32 3.68 4.64 3 6 C2.01 6 1.02 6 0 6 C0 4.02 0 2.04 0 0 Z " fill="#5285D0" transform="translate(263,315)"/>
<path d="M0 0 C2.64 0 5.28 0 8 0 C5.64031256 2.09749995 4.45383006 2.96905704 1.25 3.1875 C0.13625 3.0946875 0.13625 3.0946875 -1 3 C-0.67 2.01 -0.34 1.02 0 0 Z " fill="#1C2741" transform="translate(345,354)"/>
</svg>
